<mxfile host="Electron" agent="Mozilla/5.0 (X11; Linux x86_64) AppleWebKit/537.36 (KHTML, like Gecko) draw.io/26.0.16 Chrome/132.0.6834.196 Electron/34.2.0 Safari/537.36" version="26.0.16">
  <diagram name="Seite-1" id="JgjYECVINH4eJ8rh7e2g">
    <mxGraphModel dx="1891" dy="986" grid="1" gridSize="10" guides="1" tooltips="1" connect="1" arrows="1" fold="1" page="1" pageScale="1" pageWidth="827" pageHeight="1169" math="0" shadow="0">
      <root>
        <mxCell id="0" />
        <mxCell id="1" parent="0" />
        <mxCell id="LWwZCq1r_IZ6H-L7bGc5-147" value="" style="group" vertex="1" connectable="0" parent="1">
          <mxGeometry x="40" y="40" width="120" height="160" as="geometry" />
        </mxCell>
        <mxCell id="LWwZCq1r_IZ6H-L7bGc5-146" value="" style="rounded=0;whiteSpace=wrap;html=1;align=center;verticalAlign=middle;fontFamily=Helvetica;fontSize=12;fillColor=none;strokeColor=none;" vertex="1" parent="LWwZCq1r_IZ6H-L7bGc5-147">
          <mxGeometry width="120" height="160" as="geometry" />
        </mxCell>
        <mxCell id="LWwZCq1r_IZ6H-L7bGc5-126" value="ID" style="rounded=0;whiteSpace=wrap;html=1;strokeColor=default;align=center;verticalAlign=middle;fontFamily=Helvetica;fontSize=12;fontColor=default;fillColor=none;container=0;" vertex="1" parent="LWwZCq1r_IZ6H-L7bGc5-147">
          <mxGeometry y="40" width="40" height="40" as="geometry" />
        </mxCell>
        <mxCell id="LWwZCq1r_IZ6H-L7bGc5-127" value="&lt;font&gt;Vorgang&lt;/font&gt;" style="rounded=0;whiteSpace=wrap;html=1;strokeColor=default;align=center;verticalAlign=middle;fontFamily=Helvetica;fontSize=10;fontColor=default;fillColor=none;container=0;" vertex="1" parent="LWwZCq1r_IZ6H-L7bGc5-147">
          <mxGeometry x="40" y="40" width="80" height="40" as="geometry" />
        </mxCell>
        <mxCell id="LWwZCq1r_IZ6H-L7bGc5-128" value="D" style="rounded=0;whiteSpace=wrap;html=1;strokeColor=default;align=center;verticalAlign=middle;fontFamily=Helvetica;fontSize=12;fontColor=default;fillColor=none;container=0;" vertex="1" parent="LWwZCq1r_IZ6H-L7bGc5-147">
          <mxGeometry y="80" width="40" height="40" as="geometry" />
        </mxCell>
        <mxCell id="LWwZCq1r_IZ6H-L7bGc5-129" value="GP" style="rounded=0;whiteSpace=wrap;html=1;strokeColor=default;align=center;verticalAlign=middle;fontFamily=Helvetica;fontSize=12;fontColor=default;fillColor=none;container=0;" vertex="1" parent="LWwZCq1r_IZ6H-L7bGc5-147">
          <mxGeometry x="40" y="80" width="40" height="40" as="geometry" />
        </mxCell>
        <mxCell id="LWwZCq1r_IZ6H-L7bGc5-130" value="FP" style="rounded=0;whiteSpace=wrap;html=1;strokeColor=default;align=center;verticalAlign=middle;fontFamily=Helvetica;fontSize=12;fontColor=default;fillColor=none;container=0;" vertex="1" parent="LWwZCq1r_IZ6H-L7bGc5-147">
          <mxGeometry x="80" y="80" width="40" height="40" as="geometry" />
        </mxCell>
        <mxCell id="LWwZCq1r_IZ6H-L7bGc5-131" value="FAZ" style="text;html=1;align=center;verticalAlign=middle;whiteSpace=wrap;rounded=0;fontFamily=Helvetica;fontSize=12;fontColor=default;container=0;" vertex="1" parent="LWwZCq1r_IZ6H-L7bGc5-147">
          <mxGeometry width="40" height="40" as="geometry" />
        </mxCell>
        <mxCell id="LWwZCq1r_IZ6H-L7bGc5-132" value="SAZ" style="text;html=1;align=center;verticalAlign=middle;whiteSpace=wrap;rounded=0;fontFamily=Helvetica;fontSize=12;fontColor=default;container=0;" vertex="1" parent="LWwZCq1r_IZ6H-L7bGc5-147">
          <mxGeometry y="120" width="40" height="40" as="geometry" />
        </mxCell>
        <mxCell id="LWwZCq1r_IZ6H-L7bGc5-133" value="FEZ" style="text;html=1;align=center;verticalAlign=middle;whiteSpace=wrap;rounded=0;fontFamily=Helvetica;fontSize=12;fontColor=default;container=0;" vertex="1" parent="LWwZCq1r_IZ6H-L7bGc5-147">
          <mxGeometry x="80" width="40" height="40" as="geometry" />
        </mxCell>
        <mxCell id="LWwZCq1r_IZ6H-L7bGc5-134" value="SEZ" style="text;html=1;align=center;verticalAlign=middle;whiteSpace=wrap;rounded=0;fontFamily=Helvetica;fontSize=12;fontColor=default;container=0;" vertex="1" parent="LWwZCq1r_IZ6H-L7bGc5-147">
          <mxGeometry x="80" y="120" width="40" height="40" as="geometry" />
        </mxCell>
        <mxCell id="LWwZCq1r_IZ6H-L7bGc5-194" value="" style="group" vertex="1" connectable="0" parent="1">
          <mxGeometry x="40" y="440" width="120" height="160" as="geometry" />
        </mxCell>
        <mxCell id="LWwZCq1r_IZ6H-L7bGc5-195" value="" style="rounded=0;whiteSpace=wrap;html=1;align=center;verticalAlign=middle;fontFamily=Helvetica;fontSize=12;fillColor=none;strokeColor=none;" vertex="1" parent="LWwZCq1r_IZ6H-L7bGc5-194">
          <mxGeometry width="120" height="160" as="geometry" />
        </mxCell>
        <mxCell id="LWwZCq1r_IZ6H-L7bGc5-196" value="1" style="rounded=0;whiteSpace=wrap;html=1;strokeColor=default;align=center;verticalAlign=middle;fontFamily=Helvetica;fontSize=12;fontColor=default;fillColor=none;container=0;" vertex="1" parent="LWwZCq1r_IZ6H-L7bGc5-194">
          <mxGeometry y="40" width="40" height="40" as="geometry" />
        </mxCell>
        <mxCell id="LWwZCq1r_IZ6H-L7bGc5-197" value="&lt;font style=&quot;font-size: 10px;&quot;&gt;Infrastruktur-bedarf ermitteln&lt;/font&gt;" style="rounded=0;whiteSpace=wrap;html=1;strokeColor=default;align=center;verticalAlign=middle;fontFamily=Helvetica;fontSize=12;fontColor=default;fillColor=none;container=0;" vertex="1" parent="LWwZCq1r_IZ6H-L7bGc5-194">
          <mxGeometry x="40" y="40" width="80" height="40" as="geometry" />
        </mxCell>
        <mxCell id="LWwZCq1r_IZ6H-L7bGc5-198" value="1" style="rounded=0;whiteSpace=wrap;html=1;strokeColor=default;align=center;verticalAlign=middle;fontFamily=Helvetica;fontSize=12;fontColor=default;fillColor=none;container=0;" vertex="1" parent="LWwZCq1r_IZ6H-L7bGc5-194">
          <mxGeometry y="80" width="40" height="40" as="geometry" />
        </mxCell>
        <mxCell id="LWwZCq1r_IZ6H-L7bGc5-199" value="GP" style="rounded=0;whiteSpace=wrap;html=1;strokeColor=default;align=center;verticalAlign=middle;fontFamily=Helvetica;fontSize=12;fontColor=default;fillColor=none;container=0;" vertex="1" parent="LWwZCq1r_IZ6H-L7bGc5-194">
          <mxGeometry x="40" y="80" width="40" height="40" as="geometry" />
        </mxCell>
        <mxCell id="LWwZCq1r_IZ6H-L7bGc5-200" value="FP" style="rounded=0;whiteSpace=wrap;html=1;strokeColor=default;align=center;verticalAlign=middle;fontFamily=Helvetica;fontSize=12;fontColor=default;fillColor=none;container=0;" vertex="1" parent="LWwZCq1r_IZ6H-L7bGc5-194">
          <mxGeometry x="80" y="80" width="40" height="40" as="geometry" />
        </mxCell>
        <mxCell id="LWwZCq1r_IZ6H-L7bGc5-201" value="0" style="text;html=1;align=center;verticalAlign=middle;whiteSpace=wrap;rounded=0;fontFamily=Helvetica;fontSize=12;fontColor=default;container=0;" vertex="1" parent="LWwZCq1r_IZ6H-L7bGc5-194">
          <mxGeometry width="40" height="40" as="geometry" />
        </mxCell>
        <mxCell id="LWwZCq1r_IZ6H-L7bGc5-202" value="SAZ" style="text;html=1;align=center;verticalAlign=middle;whiteSpace=wrap;rounded=0;fontFamily=Helvetica;fontSize=12;fontColor=default;container=0;" vertex="1" parent="LWwZCq1r_IZ6H-L7bGc5-194">
          <mxGeometry y="120" width="40" height="40" as="geometry" />
        </mxCell>
        <mxCell id="LWwZCq1r_IZ6H-L7bGc5-203" value="1" style="text;html=1;align=center;verticalAlign=middle;whiteSpace=wrap;rounded=0;fontFamily=Helvetica;fontSize=12;fontColor=default;container=0;" vertex="1" parent="LWwZCq1r_IZ6H-L7bGc5-194">
          <mxGeometry x="80" width="40" height="40" as="geometry" />
        </mxCell>
        <mxCell id="LWwZCq1r_IZ6H-L7bGc5-204" value="SEZ" style="text;html=1;align=center;verticalAlign=middle;whiteSpace=wrap;rounded=0;fontFamily=Helvetica;fontSize=12;fontColor=default;container=0;" vertex="1" parent="LWwZCq1r_IZ6H-L7bGc5-194">
          <mxGeometry x="80" y="120" width="40" height="40" as="geometry" />
        </mxCell>
        <mxCell id="LWwZCq1r_IZ6H-L7bGc5-205" value="" style="group" vertex="1" connectable="0" parent="1">
          <mxGeometry x="240" y="320" width="120" height="160" as="geometry" />
        </mxCell>
        <mxCell id="LWwZCq1r_IZ6H-L7bGc5-206" value="" style="rounded=0;whiteSpace=wrap;html=1;align=center;verticalAlign=middle;fontFamily=Helvetica;fontSize=12;fillColor=none;strokeColor=none;" vertex="1" parent="LWwZCq1r_IZ6H-L7bGc5-205">
          <mxGeometry width="120" height="160" as="geometry" />
        </mxCell>
        <mxCell id="LWwZCq1r_IZ6H-L7bGc5-207" value="2" style="rounded=0;whiteSpace=wrap;html=1;strokeColor=default;align=center;verticalAlign=middle;fontFamily=Helvetica;fontSize=12;fontColor=default;fillColor=none;container=0;" vertex="1" parent="LWwZCq1r_IZ6H-L7bGc5-205">
          <mxGeometry y="40" width="40" height="40" as="geometry" />
        </mxCell>
        <mxCell id="LWwZCq1r_IZ6H-L7bGc5-208" value="Arbeitsplatz-bedarf ermitteln" style="rounded=0;whiteSpace=wrap;html=1;strokeColor=default;align=center;verticalAlign=middle;fontFamily=Helvetica;fontSize=10;fontColor=default;fillColor=none;container=0;" vertex="1" parent="LWwZCq1r_IZ6H-L7bGc5-205">
          <mxGeometry x="40" y="40" width="80" height="40" as="geometry" />
        </mxCell>
        <mxCell id="LWwZCq1r_IZ6H-L7bGc5-209" value="2" style="rounded=0;whiteSpace=wrap;html=1;strokeColor=default;align=center;verticalAlign=middle;fontFamily=Helvetica;fontSize=12;fontColor=default;fillColor=none;container=0;" vertex="1" parent="LWwZCq1r_IZ6H-L7bGc5-205">
          <mxGeometry y="80" width="40" height="40" as="geometry" />
        </mxCell>
        <mxCell id="LWwZCq1r_IZ6H-L7bGc5-210" value="GP" style="rounded=0;whiteSpace=wrap;html=1;strokeColor=default;align=center;verticalAlign=middle;fontFamily=Helvetica;fontSize=12;fontColor=default;fillColor=none;container=0;" vertex="1" parent="LWwZCq1r_IZ6H-L7bGc5-205">
          <mxGeometry x="40" y="80" width="40" height="40" as="geometry" />
        </mxCell>
        <mxCell id="LWwZCq1r_IZ6H-L7bGc5-211" value="FP" style="rounded=0;whiteSpace=wrap;html=1;strokeColor=default;align=center;verticalAlign=middle;fontFamily=Helvetica;fontSize=12;fontColor=default;fillColor=none;container=0;" vertex="1" parent="LWwZCq1r_IZ6H-L7bGc5-205">
          <mxGeometry x="80" y="80" width="40" height="40" as="geometry" />
        </mxCell>
        <mxCell id="LWwZCq1r_IZ6H-L7bGc5-212" value="1" style="text;html=1;align=center;verticalAlign=middle;whiteSpace=wrap;rounded=0;fontFamily=Helvetica;fontSize=12;fontColor=default;container=0;" vertex="1" parent="LWwZCq1r_IZ6H-L7bGc5-205">
          <mxGeometry width="40" height="40" as="geometry" />
        </mxCell>
        <mxCell id="LWwZCq1r_IZ6H-L7bGc5-213" value="SAZ" style="text;html=1;align=center;verticalAlign=middle;whiteSpace=wrap;rounded=0;fontFamily=Helvetica;fontSize=12;fontColor=default;container=0;" vertex="1" parent="LWwZCq1r_IZ6H-L7bGc5-205">
          <mxGeometry y="120" width="40" height="40" as="geometry" />
        </mxCell>
        <mxCell id="LWwZCq1r_IZ6H-L7bGc5-214" value="3" style="text;html=1;align=center;verticalAlign=middle;whiteSpace=wrap;rounded=0;fontFamily=Helvetica;fontSize=12;fontColor=default;container=0;" vertex="1" parent="LWwZCq1r_IZ6H-L7bGc5-205">
          <mxGeometry x="80" width="40" height="40" as="geometry" />
        </mxCell>
        <mxCell id="LWwZCq1r_IZ6H-L7bGc5-215" value="SEZ" style="text;html=1;align=center;verticalAlign=middle;whiteSpace=wrap;rounded=0;fontFamily=Helvetica;fontSize=12;fontColor=default;container=0;" vertex="1" parent="LWwZCq1r_IZ6H-L7bGc5-205">
          <mxGeometry x="80" y="120" width="40" height="40" as="geometry" />
        </mxCell>
        <mxCell id="LWwZCq1r_IZ6H-L7bGc5-216" value="" style="group" vertex="1" connectable="0" parent="1">
          <mxGeometry x="240" y="560" width="120" height="160" as="geometry" />
        </mxCell>
        <mxCell id="LWwZCq1r_IZ6H-L7bGc5-217" value="" style="rounded=0;whiteSpace=wrap;html=1;align=center;verticalAlign=middle;fontFamily=Helvetica;fontSize=12;fillColor=none;strokeColor=none;" vertex="1" parent="LWwZCq1r_IZ6H-L7bGc5-216">
          <mxGeometry width="120" height="160" as="geometry" />
        </mxCell>
        <mxCell id="LWwZCq1r_IZ6H-L7bGc5-218" value="3" style="rounded=0;whiteSpace=wrap;html=1;strokeColor=default;align=center;verticalAlign=middle;fontFamily=Helvetica;fontSize=12;fontColor=default;fillColor=none;container=0;" vertex="1" parent="LWwZCq1r_IZ6H-L7bGc5-216">
          <mxGeometry y="40" width="40" height="40" as="geometry" />
        </mxCell>
        <mxCell id="LWwZCq1r_IZ6H-L7bGc5-219" value="&lt;font size=&quot;1&quot;&gt;Netzwerkplan entwerfen&lt;/font&gt;" style="rounded=0;whiteSpace=wrap;html=1;strokeColor=default;align=center;verticalAlign=middle;fontFamily=Helvetica;fontSize=12;fontColor=default;fillColor=none;container=0;" vertex="1" parent="LWwZCq1r_IZ6H-L7bGc5-216">
          <mxGeometry x="40" y="40" width="80" height="40" as="geometry" />
        </mxCell>
        <mxCell id="LWwZCq1r_IZ6H-L7bGc5-220" value="1" style="rounded=0;whiteSpace=wrap;html=1;strokeColor=default;align=center;verticalAlign=middle;fontFamily=Helvetica;fontSize=12;fontColor=default;fillColor=none;container=0;" vertex="1" parent="LWwZCq1r_IZ6H-L7bGc5-216">
          <mxGeometry y="80" width="40" height="40" as="geometry" />
        </mxCell>
        <mxCell id="LWwZCq1r_IZ6H-L7bGc5-221" value="GP" style="rounded=0;whiteSpace=wrap;html=1;strokeColor=default;align=center;verticalAlign=middle;fontFamily=Helvetica;fontSize=12;fontColor=default;fillColor=none;container=0;" vertex="1" parent="LWwZCq1r_IZ6H-L7bGc5-216">
          <mxGeometry x="40" y="80" width="40" height="40" as="geometry" />
        </mxCell>
        <mxCell id="LWwZCq1r_IZ6H-L7bGc5-222" value="FP" style="rounded=0;whiteSpace=wrap;html=1;strokeColor=default;align=center;verticalAlign=middle;fontFamily=Helvetica;fontSize=12;fontColor=default;fillColor=none;container=0;" vertex="1" parent="LWwZCq1r_IZ6H-L7bGc5-216">
          <mxGeometry x="80" y="80" width="40" height="40" as="geometry" />
        </mxCell>
        <mxCell id="LWwZCq1r_IZ6H-L7bGc5-223" value="1" style="text;html=1;align=center;verticalAlign=middle;whiteSpace=wrap;rounded=0;fontFamily=Helvetica;fontSize=12;fontColor=default;container=0;" vertex="1" parent="LWwZCq1r_IZ6H-L7bGc5-216">
          <mxGeometry width="40" height="40" as="geometry" />
        </mxCell>
        <mxCell id="LWwZCq1r_IZ6H-L7bGc5-224" value="SAZ" style="text;html=1;align=center;verticalAlign=middle;whiteSpace=wrap;rounded=0;fontFamily=Helvetica;fontSize=12;fontColor=default;container=0;" vertex="1" parent="LWwZCq1r_IZ6H-L7bGc5-216">
          <mxGeometry y="120" width="40" height="40" as="geometry" />
        </mxCell>
        <mxCell id="LWwZCq1r_IZ6H-L7bGc5-225" value="2" style="text;html=1;align=center;verticalAlign=middle;whiteSpace=wrap;rounded=0;fontFamily=Helvetica;fontSize=12;fontColor=default;container=0;" vertex="1" parent="LWwZCq1r_IZ6H-L7bGc5-216">
          <mxGeometry x="80" width="40" height="40" as="geometry" />
        </mxCell>
        <mxCell id="LWwZCq1r_IZ6H-L7bGc5-226" value="SEZ" style="text;html=1;align=center;verticalAlign=middle;whiteSpace=wrap;rounded=0;fontFamily=Helvetica;fontSize=12;fontColor=default;container=0;" vertex="1" parent="LWwZCq1r_IZ6H-L7bGc5-216">
          <mxGeometry x="80" y="120" width="40" height="40" as="geometry" />
        </mxCell>
        <mxCell id="LWwZCq1r_IZ6H-L7bGc5-228" style="edgeStyle=orthogonalEdgeStyle;rounded=0;orthogonalLoop=1;jettySize=auto;html=1;fontFamily=Helvetica;fontSize=12;fontColor=default;" edge="1" parent="1" source="LWwZCq1r_IZ6H-L7bGc5-195" target="LWwZCq1r_IZ6H-L7bGc5-206">
          <mxGeometry relative="1" as="geometry" />
        </mxCell>
        <mxCell id="LWwZCq1r_IZ6H-L7bGc5-229" style="edgeStyle=orthogonalEdgeStyle;rounded=0;orthogonalLoop=1;jettySize=auto;html=1;fontFamily=Helvetica;fontSize=12;fontColor=default;" edge="1" parent="1" source="LWwZCq1r_IZ6H-L7bGc5-195" target="LWwZCq1r_IZ6H-L7bGc5-217">
          <mxGeometry relative="1" as="geometry" />
        </mxCell>
        <mxCell id="LWwZCq1r_IZ6H-L7bGc5-230" value="" style="group" vertex="1" connectable="0" parent="1">
          <mxGeometry x="440" y="320" width="120" height="160" as="geometry" />
        </mxCell>
        <mxCell id="LWwZCq1r_IZ6H-L7bGc5-231" value="" style="rounded=0;whiteSpace=wrap;html=1;align=center;verticalAlign=middle;fontFamily=Helvetica;fontSize=12;fillColor=none;strokeColor=none;" vertex="1" parent="LWwZCq1r_IZ6H-L7bGc5-230">
          <mxGeometry width="120" height="160" as="geometry" />
        </mxCell>
        <mxCell id="LWwZCq1r_IZ6H-L7bGc5-232" value="5" style="rounded=0;whiteSpace=wrap;html=1;strokeColor=default;align=center;verticalAlign=middle;fontFamily=Helvetica;fontSize=12;fontColor=default;fillColor=none;container=0;" vertex="1" parent="LWwZCq1r_IZ6H-L7bGc5-230">
          <mxGeometry y="40" width="40" height="40" as="geometry" />
        </mxCell>
        <mxCell id="LWwZCq1r_IZ6H-L7bGc5-233" value="&lt;font size=&quot;1&quot;&gt;Hardware PC + Server beschaffen&lt;/font&gt;" style="rounded=0;whiteSpace=wrap;html=1;strokeColor=default;align=center;verticalAlign=middle;fontFamily=Helvetica;fontSize=12;fontColor=default;fillColor=none;container=0;" vertex="1" parent="LWwZCq1r_IZ6H-L7bGc5-230">
          <mxGeometry x="40" y="40" width="80" height="40" as="geometry" />
        </mxCell>
        <mxCell id="LWwZCq1r_IZ6H-L7bGc5-234" value="4" style="rounded=0;whiteSpace=wrap;html=1;strokeColor=default;align=center;verticalAlign=middle;fontFamily=Helvetica;fontSize=12;fontColor=default;fillColor=none;container=0;" vertex="1" parent="LWwZCq1r_IZ6H-L7bGc5-230">
          <mxGeometry y="80" width="40" height="40" as="geometry" />
        </mxCell>
        <mxCell id="LWwZCq1r_IZ6H-L7bGc5-235" value="GP" style="rounded=0;whiteSpace=wrap;html=1;strokeColor=default;align=center;verticalAlign=middle;fontFamily=Helvetica;fontSize=12;fontColor=default;fillColor=none;container=0;" vertex="1" parent="LWwZCq1r_IZ6H-L7bGc5-230">
          <mxGeometry x="40" y="80" width="40" height="40" as="geometry" />
        </mxCell>
        <mxCell id="LWwZCq1r_IZ6H-L7bGc5-236" value="FP" style="rounded=0;whiteSpace=wrap;html=1;strokeColor=default;align=center;verticalAlign=middle;fontFamily=Helvetica;fontSize=12;fontColor=default;fillColor=none;container=0;" vertex="1" parent="LWwZCq1r_IZ6H-L7bGc5-230">
          <mxGeometry x="80" y="80" width="40" height="40" as="geometry" />
        </mxCell>
        <mxCell id="LWwZCq1r_IZ6H-L7bGc5-237" value="3" style="text;html=1;align=center;verticalAlign=middle;whiteSpace=wrap;rounded=0;fontFamily=Helvetica;fontSize=12;fontColor=default;container=0;" vertex="1" parent="LWwZCq1r_IZ6H-L7bGc5-230">
          <mxGeometry width="40" height="40" as="geometry" />
        </mxCell>
        <mxCell id="LWwZCq1r_IZ6H-L7bGc5-238" value="SAZ" style="text;html=1;align=center;verticalAlign=middle;whiteSpace=wrap;rounded=0;fontFamily=Helvetica;fontSize=12;fontColor=default;container=0;" vertex="1" parent="LWwZCq1r_IZ6H-L7bGc5-230">
          <mxGeometry y="120" width="40" height="40" as="geometry" />
        </mxCell>
        <mxCell id="LWwZCq1r_IZ6H-L7bGc5-239" value="7" style="text;html=1;align=center;verticalAlign=middle;whiteSpace=wrap;rounded=0;fontFamily=Helvetica;fontSize=12;fontColor=default;container=0;" vertex="1" parent="LWwZCq1r_IZ6H-L7bGc5-230">
          <mxGeometry x="80" width="40" height="40" as="geometry" />
        </mxCell>
        <mxCell id="LWwZCq1r_IZ6H-L7bGc5-240" value="SEZ" style="text;html=1;align=center;verticalAlign=middle;whiteSpace=wrap;rounded=0;fontFamily=Helvetica;fontSize=12;fontColor=default;container=0;" vertex="1" parent="LWwZCq1r_IZ6H-L7bGc5-230">
          <mxGeometry x="80" y="120" width="40" height="40" as="geometry" />
        </mxCell>
        <mxCell id="LWwZCq1r_IZ6H-L7bGc5-241" style="edgeStyle=orthogonalEdgeStyle;rounded=0;orthogonalLoop=1;jettySize=auto;html=1;fontFamily=Helvetica;fontSize=12;fontColor=default;" edge="1" parent="1" source="LWwZCq1r_IZ6H-L7bGc5-206" target="LWwZCq1r_IZ6H-L7bGc5-231">
          <mxGeometry relative="1" as="geometry" />
        </mxCell>
        <mxCell id="LWwZCq1r_IZ6H-L7bGc5-243" value="" style="group" vertex="1" connectable="0" parent="1">
          <mxGeometry x="640" y="320" width="120" height="160" as="geometry" />
        </mxCell>
        <mxCell id="LWwZCq1r_IZ6H-L7bGc5-244" value="" style="rounded=0;whiteSpace=wrap;html=1;align=center;verticalAlign=middle;fontFamily=Helvetica;fontSize=12;fillColor=none;strokeColor=none;" vertex="1" parent="LWwZCq1r_IZ6H-L7bGc5-243">
          <mxGeometry width="120" height="160" as="geometry" />
        </mxCell>
        <mxCell id="LWwZCq1r_IZ6H-L7bGc5-245" value="9" style="rounded=0;whiteSpace=wrap;html=1;strokeColor=default;align=center;verticalAlign=middle;fontFamily=Helvetica;fontSize=12;fontColor=default;fillColor=none;container=0;" vertex="1" parent="LWwZCq1r_IZ6H-L7bGc5-243">
          <mxGeometry y="40" width="40" height="40" as="geometry" />
        </mxCell>
        <mxCell id="LWwZCq1r_IZ6H-L7bGc5-246" value="&lt;font size=&quot;1&quot;&gt;Hardware PC + Server aufbauen&lt;/font&gt;" style="rounded=0;whiteSpace=wrap;html=1;strokeColor=default;align=center;verticalAlign=middle;fontFamily=Helvetica;fontSize=12;fontColor=default;fillColor=none;container=0;" vertex="1" parent="LWwZCq1r_IZ6H-L7bGc5-243">
          <mxGeometry x="40" y="40" width="80" height="40" as="geometry" />
        </mxCell>
        <mxCell id="LWwZCq1r_IZ6H-L7bGc5-247" value="6" style="rounded=0;whiteSpace=wrap;html=1;strokeColor=default;align=center;verticalAlign=middle;fontFamily=Helvetica;fontSize=12;fontColor=default;fillColor=none;container=0;" vertex="1" parent="LWwZCq1r_IZ6H-L7bGc5-243">
          <mxGeometry y="80" width="40" height="40" as="geometry" />
        </mxCell>
        <mxCell id="LWwZCq1r_IZ6H-L7bGc5-248" value="GP" style="rounded=0;whiteSpace=wrap;html=1;strokeColor=default;align=center;verticalAlign=middle;fontFamily=Helvetica;fontSize=12;fontColor=default;fillColor=none;container=0;" vertex="1" parent="LWwZCq1r_IZ6H-L7bGc5-243">
          <mxGeometry x="40" y="80" width="40" height="40" as="geometry" />
        </mxCell>
        <mxCell id="LWwZCq1r_IZ6H-L7bGc5-249" value="FP" style="rounded=0;whiteSpace=wrap;html=1;strokeColor=default;align=center;verticalAlign=middle;fontFamily=Helvetica;fontSize=12;fontColor=default;fillColor=none;container=0;" vertex="1" parent="LWwZCq1r_IZ6H-L7bGc5-243">
          <mxGeometry x="80" y="80" width="40" height="40" as="geometry" />
        </mxCell>
        <mxCell id="LWwZCq1r_IZ6H-L7bGc5-250" value="7" style="text;html=1;align=center;verticalAlign=middle;whiteSpace=wrap;rounded=0;fontFamily=Helvetica;fontSize=12;fontColor=default;container=0;" vertex="1" parent="LWwZCq1r_IZ6H-L7bGc5-243">
          <mxGeometry width="40" height="40" as="geometry" />
        </mxCell>
        <mxCell id="LWwZCq1r_IZ6H-L7bGc5-251" value="SAZ" style="text;html=1;align=center;verticalAlign=middle;whiteSpace=wrap;rounded=0;fontFamily=Helvetica;fontSize=12;fontColor=default;container=0;" vertex="1" parent="LWwZCq1r_IZ6H-L7bGc5-243">
          <mxGeometry y="120" width="40" height="40" as="geometry" />
        </mxCell>
        <mxCell id="LWwZCq1r_IZ6H-L7bGc5-252" value="13" style="text;html=1;align=center;verticalAlign=middle;whiteSpace=wrap;rounded=0;fontFamily=Helvetica;fontSize=12;fontColor=default;container=0;" vertex="1" parent="LWwZCq1r_IZ6H-L7bGc5-243">
          <mxGeometry x="80" width="40" height="40" as="geometry" />
        </mxCell>
        <mxCell id="LWwZCq1r_IZ6H-L7bGc5-253" value="SEZ" style="text;html=1;align=center;verticalAlign=middle;whiteSpace=wrap;rounded=0;fontFamily=Helvetica;fontSize=12;fontColor=default;container=0;" vertex="1" parent="LWwZCq1r_IZ6H-L7bGc5-243">
          <mxGeometry x="80" y="120" width="40" height="40" as="geometry" />
        </mxCell>
        <mxCell id="LWwZCq1r_IZ6H-L7bGc5-254" value="" style="group" vertex="1" connectable="0" parent="1">
          <mxGeometry x="640" y="80" width="120" height="160" as="geometry" />
        </mxCell>
        <mxCell id="LWwZCq1r_IZ6H-L7bGc5-255" value="" style="rounded=0;whiteSpace=wrap;html=1;align=center;verticalAlign=middle;fontFamily=Helvetica;fontSize=12;fillColor=none;strokeColor=none;" vertex="1" parent="LWwZCq1r_IZ6H-L7bGc5-254">
          <mxGeometry width="120" height="160" as="geometry" />
        </mxCell>
        <mxCell id="LWwZCq1r_IZ6H-L7bGc5-256" value="6" style="rounded=0;whiteSpace=wrap;html=1;strokeColor=default;align=center;verticalAlign=middle;fontFamily=Helvetica;fontSize=12;fontColor=default;fillColor=none;container=0;" vertex="1" parent="LWwZCq1r_IZ6H-L7bGc5-254">
          <mxGeometry y="40" width="40" height="40" as="geometry" />
        </mxCell>
        <mxCell id="LWwZCq1r_IZ6H-L7bGc5-257" value="Software beschaffen" style="rounded=0;whiteSpace=wrap;html=1;strokeColor=default;align=center;verticalAlign=middle;fontFamily=Helvetica;fontSize=10;fontColor=default;fillColor=none;container=0;" vertex="1" parent="LWwZCq1r_IZ6H-L7bGc5-254">
          <mxGeometry x="40" y="40" width="80" height="40" as="geometry" />
        </mxCell>
        <mxCell id="LWwZCq1r_IZ6H-L7bGc5-258" value="2" style="rounded=0;whiteSpace=wrap;html=1;strokeColor=default;align=center;verticalAlign=middle;fontFamily=Helvetica;fontSize=12;fontColor=default;fillColor=none;container=0;" vertex="1" parent="LWwZCq1r_IZ6H-L7bGc5-254">
          <mxGeometry y="80" width="40" height="40" as="geometry" />
        </mxCell>
        <mxCell id="LWwZCq1r_IZ6H-L7bGc5-259" value="GP" style="rounded=0;whiteSpace=wrap;html=1;strokeColor=default;align=center;verticalAlign=middle;fontFamily=Helvetica;fontSize=12;fontColor=default;fillColor=none;container=0;" vertex="1" parent="LWwZCq1r_IZ6H-L7bGc5-254">
          <mxGeometry x="40" y="80" width="40" height="40" as="geometry" />
        </mxCell>
        <mxCell id="LWwZCq1r_IZ6H-L7bGc5-260" value="FP" style="rounded=0;whiteSpace=wrap;html=1;strokeColor=default;align=center;verticalAlign=middle;fontFamily=Helvetica;fontSize=12;fontColor=default;fillColor=none;container=0;" vertex="1" parent="LWwZCq1r_IZ6H-L7bGc5-254">
          <mxGeometry x="80" y="80" width="40" height="40" as="geometry" />
        </mxCell>
        <mxCell id="LWwZCq1r_IZ6H-L7bGc5-261" value="7" style="text;html=1;align=center;verticalAlign=middle;whiteSpace=wrap;rounded=0;fontFamily=Helvetica;fontSize=12;fontColor=default;container=0;" vertex="1" parent="LWwZCq1r_IZ6H-L7bGc5-254">
          <mxGeometry width="40" height="40" as="geometry" />
        </mxCell>
        <mxCell id="LWwZCq1r_IZ6H-L7bGc5-262" value="15" style="text;html=1;align=center;verticalAlign=middle;whiteSpace=wrap;rounded=0;fontFamily=Helvetica;fontSize=12;fontColor=default;container=0;" vertex="1" parent="LWwZCq1r_IZ6H-L7bGc5-254">
          <mxGeometry y="120" width="40" height="40" as="geometry" />
        </mxCell>
        <mxCell id="LWwZCq1r_IZ6H-L7bGc5-263" value="9" style="text;html=1;align=center;verticalAlign=middle;whiteSpace=wrap;rounded=0;fontFamily=Helvetica;fontSize=12;fontColor=default;container=0;" vertex="1" parent="LWwZCq1r_IZ6H-L7bGc5-254">
          <mxGeometry x="80" width="40" height="40" as="geometry" />
        </mxCell>
        <mxCell id="LWwZCq1r_IZ6H-L7bGc5-264" value="17" style="text;html=1;align=center;verticalAlign=middle;whiteSpace=wrap;rounded=0;fontFamily=Helvetica;fontSize=12;fontColor=default;container=0;" vertex="1" parent="LWwZCq1r_IZ6H-L7bGc5-254">
          <mxGeometry x="80" y="120" width="40" height="40" as="geometry" />
        </mxCell>
        <mxCell id="LWwZCq1r_IZ6H-L7bGc5-265" value="" style="group" vertex="1" connectable="0" parent="1">
          <mxGeometry x="640" y="560" width="120" height="160" as="geometry" />
        </mxCell>
        <mxCell id="LWwZCq1r_IZ6H-L7bGc5-266" value="" style="rounded=0;whiteSpace=wrap;html=1;align=center;verticalAlign=middle;fontFamily=Helvetica;fontSize=12;fillColor=none;strokeColor=none;" vertex="1" parent="LWwZCq1r_IZ6H-L7bGc5-265">
          <mxGeometry width="120" height="160" as="geometry" />
        </mxCell>
        <mxCell id="LWwZCq1r_IZ6H-L7bGc5-267" value="7" style="rounded=0;whiteSpace=wrap;html=1;strokeColor=default;align=center;verticalAlign=middle;fontFamily=Helvetica;fontSize=12;fontColor=default;fillColor=none;container=0;" vertex="1" parent="LWwZCq1r_IZ6H-L7bGc5-265">
          <mxGeometry y="40" width="40" height="40" as="geometry" />
        </mxCell>
        <mxCell id="LWwZCq1r_IZ6H-L7bGc5-268" value="Netzwerk-zubehör beschaffen" style="rounded=0;whiteSpace=wrap;html=1;strokeColor=default;align=center;verticalAlign=middle;fontFamily=Helvetica;fontSize=10;fontColor=default;fillColor=none;container=0;" vertex="1" parent="LWwZCq1r_IZ6H-L7bGc5-265">
          <mxGeometry x="40" y="40" width="80" height="40" as="geometry" />
        </mxCell>
        <mxCell id="LWwZCq1r_IZ6H-L7bGc5-269" value="2" style="rounded=0;whiteSpace=wrap;html=1;strokeColor=default;align=center;verticalAlign=middle;fontFamily=Helvetica;fontSize=12;fontColor=default;fillColor=none;container=0;" vertex="1" parent="LWwZCq1r_IZ6H-L7bGc5-265">
          <mxGeometry y="80" width="40" height="40" as="geometry" />
        </mxCell>
        <mxCell id="LWwZCq1r_IZ6H-L7bGc5-270" value="GP" style="rounded=0;whiteSpace=wrap;html=1;strokeColor=default;align=center;verticalAlign=middle;fontFamily=Helvetica;fontSize=12;fontColor=default;fillColor=none;container=0;" vertex="1" parent="LWwZCq1r_IZ6H-L7bGc5-265">
          <mxGeometry x="40" y="80" width="40" height="40" as="geometry" />
        </mxCell>
        <mxCell id="LWwZCq1r_IZ6H-L7bGc5-271" value="FP" style="rounded=0;whiteSpace=wrap;html=1;strokeColor=default;align=center;verticalAlign=middle;fontFamily=Helvetica;fontSize=12;fontColor=default;fillColor=none;container=0;" vertex="1" parent="LWwZCq1r_IZ6H-L7bGc5-265">
          <mxGeometry x="80" y="80" width="40" height="40" as="geometry" />
        </mxCell>
        <mxCell id="LWwZCq1r_IZ6H-L7bGc5-272" value="7" style="text;html=1;align=center;verticalAlign=middle;whiteSpace=wrap;rounded=0;fontFamily=Helvetica;fontSize=12;fontColor=default;container=0;" vertex="1" parent="LWwZCq1r_IZ6H-L7bGc5-265">
          <mxGeometry width="40" height="40" as="geometry" />
        </mxCell>
        <mxCell id="LWwZCq1r_IZ6H-L7bGc5-273" value="SAZ" style="text;html=1;align=center;verticalAlign=middle;whiteSpace=wrap;rounded=0;fontFamily=Helvetica;fontSize=12;fontColor=default;container=0;" vertex="1" parent="LWwZCq1r_IZ6H-L7bGc5-265">
          <mxGeometry y="120" width="40" height="40" as="geometry" />
        </mxCell>
        <mxCell id="LWwZCq1r_IZ6H-L7bGc5-274" value="9" style="text;html=1;align=center;verticalAlign=middle;whiteSpace=wrap;rounded=0;fontFamily=Helvetica;fontSize=12;fontColor=default;container=0;" vertex="1" parent="LWwZCq1r_IZ6H-L7bGc5-265">
          <mxGeometry x="80" width="40" height="40" as="geometry" />
        </mxCell>
        <mxCell id="LWwZCq1r_IZ6H-L7bGc5-275" value="SEZ" style="text;html=1;align=center;verticalAlign=middle;whiteSpace=wrap;rounded=0;fontFamily=Helvetica;fontSize=12;fontColor=default;container=0;" vertex="1" parent="LWwZCq1r_IZ6H-L7bGc5-265">
          <mxGeometry x="80" y="120" width="40" height="40" as="geometry" />
        </mxCell>
        <mxCell id="LWwZCq1r_IZ6H-L7bGc5-276" style="edgeStyle=orthogonalEdgeStyle;rounded=0;orthogonalLoop=1;jettySize=auto;html=1;fontFamily=Helvetica;fontSize=12;fontColor=default;" edge="1" parent="1" source="LWwZCq1r_IZ6H-L7bGc5-231" target="LWwZCq1r_IZ6H-L7bGc5-266">
          <mxGeometry relative="1" as="geometry">
            <Array as="points">
              <mxPoint x="600" y="400" />
              <mxPoint x="600" y="640" />
            </Array>
          </mxGeometry>
        </mxCell>
        <mxCell id="LWwZCq1r_IZ6H-L7bGc5-277" style="edgeStyle=orthogonalEdgeStyle;rounded=0;orthogonalLoop=1;jettySize=auto;html=1;fontFamily=Helvetica;fontSize=12;fontColor=default;" edge="1" parent="1" source="LWwZCq1r_IZ6H-L7bGc5-217" target="LWwZCq1r_IZ6H-L7bGc5-266">
          <mxGeometry relative="1" as="geometry" />
        </mxCell>
        <mxCell id="LWwZCq1r_IZ6H-L7bGc5-278" style="edgeStyle=orthogonalEdgeStyle;rounded=0;orthogonalLoop=1;jettySize=auto;html=1;fontFamily=Helvetica;fontSize=12;fontColor=default;" edge="1" parent="1" source="LWwZCq1r_IZ6H-L7bGc5-231" target="LWwZCq1r_IZ6H-L7bGc5-255">
          <mxGeometry relative="1" as="geometry">
            <Array as="points">
              <mxPoint x="600" y="400" />
              <mxPoint x="600" y="160" />
            </Array>
          </mxGeometry>
        </mxCell>
        <mxCell id="LWwZCq1r_IZ6H-L7bGc5-279" style="edgeStyle=orthogonalEdgeStyle;rounded=0;orthogonalLoop=1;jettySize=auto;html=1;fontFamily=Helvetica;fontSize=12;fontColor=default;" edge="1" parent="1" source="LWwZCq1r_IZ6H-L7bGc5-231" target="LWwZCq1r_IZ6H-L7bGc5-244">
          <mxGeometry relative="1" as="geometry" />
        </mxCell>
        <mxCell id="LWwZCq1r_IZ6H-L7bGc5-280" value="" style="group" vertex="1" connectable="0" parent="1">
          <mxGeometry x="440" y="760" width="120" height="160" as="geometry" />
        </mxCell>
        <mxCell id="LWwZCq1r_IZ6H-L7bGc5-281" value="" style="rounded=0;whiteSpace=wrap;html=1;align=center;verticalAlign=middle;fontFamily=Helvetica;fontSize=12;fillColor=none;strokeColor=none;" vertex="1" parent="LWwZCq1r_IZ6H-L7bGc5-280">
          <mxGeometry width="120" height="160" as="geometry" />
        </mxCell>
        <mxCell id="LWwZCq1r_IZ6H-L7bGc5-282" value="4" style="rounded=0;whiteSpace=wrap;html=1;strokeColor=default;align=center;verticalAlign=middle;fontFamily=Helvetica;fontSize=12;fontColor=default;fillColor=none;container=0;" vertex="1" parent="LWwZCq1r_IZ6H-L7bGc5-280">
          <mxGeometry y="40" width="40" height="40" as="geometry" />
        </mxCell>
        <mxCell id="LWwZCq1r_IZ6H-L7bGc5-283" value="Peripheriebedarf ermitteln" style="rounded=0;whiteSpace=wrap;html=1;strokeColor=default;align=center;verticalAlign=middle;fontFamily=Helvetica;fontSize=10;fontColor=default;fillColor=none;container=0;" vertex="1" parent="LWwZCq1r_IZ6H-L7bGc5-280">
          <mxGeometry x="40" y="40" width="80" height="40" as="geometry" />
        </mxCell>
        <mxCell id="LWwZCq1r_IZ6H-L7bGc5-284" value="1" style="rounded=0;whiteSpace=wrap;html=1;strokeColor=default;align=center;verticalAlign=middle;fontFamily=Helvetica;fontSize=12;fontColor=default;fillColor=none;container=0;" vertex="1" parent="LWwZCq1r_IZ6H-L7bGc5-280">
          <mxGeometry y="80" width="40" height="40" as="geometry" />
        </mxCell>
        <mxCell id="LWwZCq1r_IZ6H-L7bGc5-285" value="GP" style="rounded=0;whiteSpace=wrap;html=1;strokeColor=default;align=center;verticalAlign=middle;fontFamily=Helvetica;fontSize=12;fontColor=default;fillColor=none;container=0;" vertex="1" parent="LWwZCq1r_IZ6H-L7bGc5-280">
          <mxGeometry x="40" y="80" width="40" height="40" as="geometry" />
        </mxCell>
        <mxCell id="LWwZCq1r_IZ6H-L7bGc5-286" value="FP" style="rounded=0;whiteSpace=wrap;html=1;strokeColor=default;align=center;verticalAlign=middle;fontFamily=Helvetica;fontSize=12;fontColor=default;fillColor=none;container=0;" vertex="1" parent="LWwZCq1r_IZ6H-L7bGc5-280">
          <mxGeometry x="80" y="80" width="40" height="40" as="geometry" />
        </mxCell>
        <mxCell id="LWwZCq1r_IZ6H-L7bGc5-287" value="2" style="text;html=1;align=center;verticalAlign=middle;whiteSpace=wrap;rounded=0;fontFamily=Helvetica;fontSize=12;fontColor=default;container=0;" vertex="1" parent="LWwZCq1r_IZ6H-L7bGc5-280">
          <mxGeometry width="40" height="40" as="geometry" />
        </mxCell>
        <mxCell id="LWwZCq1r_IZ6H-L7bGc5-288" value="SAZ" style="text;html=1;align=center;verticalAlign=middle;whiteSpace=wrap;rounded=0;fontFamily=Helvetica;fontSize=12;fontColor=default;container=0;" vertex="1" parent="LWwZCq1r_IZ6H-L7bGc5-280">
          <mxGeometry y="120" width="40" height="40" as="geometry" />
        </mxCell>
        <mxCell id="LWwZCq1r_IZ6H-L7bGc5-289" value="3" style="text;html=1;align=center;verticalAlign=middle;whiteSpace=wrap;rounded=0;fontFamily=Helvetica;fontSize=12;fontColor=default;container=0;" vertex="1" parent="LWwZCq1r_IZ6H-L7bGc5-280">
          <mxGeometry x="80" width="40" height="40" as="geometry" />
        </mxCell>
        <mxCell id="LWwZCq1r_IZ6H-L7bGc5-290" value="SEZ" style="text;html=1;align=center;verticalAlign=middle;whiteSpace=wrap;rounded=0;fontFamily=Helvetica;fontSize=12;fontColor=default;container=0;" vertex="1" parent="LWwZCq1r_IZ6H-L7bGc5-280">
          <mxGeometry x="80" y="120" width="40" height="40" as="geometry" />
        </mxCell>
        <mxCell id="LWwZCq1r_IZ6H-L7bGc5-291" style="edgeStyle=orthogonalEdgeStyle;rounded=0;orthogonalLoop=1;jettySize=auto;html=1;fontFamily=Helvetica;fontSize=12;fontColor=default;" edge="1" parent="1" source="LWwZCq1r_IZ6H-L7bGc5-217" target="LWwZCq1r_IZ6H-L7bGc5-281">
          <mxGeometry relative="1" as="geometry">
            <Array as="points">
              <mxPoint x="400" y="640" />
              <mxPoint x="400" y="840" />
            </Array>
          </mxGeometry>
        </mxCell>
        <mxCell id="LWwZCq1r_IZ6H-L7bGc5-292" value="" style="group" vertex="1" connectable="0" parent="1">
          <mxGeometry x="640" y="760" width="120" height="160" as="geometry" />
        </mxCell>
        <mxCell id="LWwZCq1r_IZ6H-L7bGc5-293" value="" style="rounded=0;whiteSpace=wrap;html=1;align=center;verticalAlign=middle;fontFamily=Helvetica;fontSize=12;fillColor=none;strokeColor=none;" vertex="1" parent="LWwZCq1r_IZ6H-L7bGc5-292">
          <mxGeometry width="120" height="160" as="geometry" />
        </mxCell>
        <mxCell id="LWwZCq1r_IZ6H-L7bGc5-294" value="8" style="rounded=0;whiteSpace=wrap;html=1;strokeColor=default;align=center;verticalAlign=middle;fontFamily=Helvetica;fontSize=12;fontColor=default;fillColor=none;container=0;" vertex="1" parent="LWwZCq1r_IZ6H-L7bGc5-292">
          <mxGeometry y="40" width="40" height="40" as="geometry" />
        </mxCell>
        <mxCell id="LWwZCq1r_IZ6H-L7bGc5-295" value="&lt;font&gt;Peripherie beschaffen&lt;/font&gt;" style="rounded=0;whiteSpace=wrap;html=1;strokeColor=default;align=center;verticalAlign=middle;fontFamily=Helvetica;fontSize=10;fontColor=default;fillColor=none;container=0;" vertex="1" parent="LWwZCq1r_IZ6H-L7bGc5-292">
          <mxGeometry x="40" y="40" width="80" height="40" as="geometry" />
        </mxCell>
        <mxCell id="LWwZCq1r_IZ6H-L7bGc5-296" value="1" style="rounded=0;whiteSpace=wrap;html=1;strokeColor=default;align=center;verticalAlign=middle;fontFamily=Helvetica;fontSize=12;fontColor=default;fillColor=none;container=0;" vertex="1" parent="LWwZCq1r_IZ6H-L7bGc5-292">
          <mxGeometry y="80" width="40" height="40" as="geometry" />
        </mxCell>
        <mxCell id="LWwZCq1r_IZ6H-L7bGc5-297" value="GP" style="rounded=0;whiteSpace=wrap;html=1;strokeColor=default;align=center;verticalAlign=middle;fontFamily=Helvetica;fontSize=12;fontColor=default;fillColor=none;container=0;" vertex="1" parent="LWwZCq1r_IZ6H-L7bGc5-292">
          <mxGeometry x="40" y="80" width="40" height="40" as="geometry" />
        </mxCell>
        <mxCell id="LWwZCq1r_IZ6H-L7bGc5-298" value="FP" style="rounded=0;whiteSpace=wrap;html=1;strokeColor=default;align=center;verticalAlign=middle;fontFamily=Helvetica;fontSize=12;fontColor=default;fillColor=none;container=0;" vertex="1" parent="LWwZCq1r_IZ6H-L7bGc5-292">
          <mxGeometry x="80" y="80" width="40" height="40" as="geometry" />
        </mxCell>
        <mxCell id="LWwZCq1r_IZ6H-L7bGc5-299" value="3" style="text;html=1;align=center;verticalAlign=middle;whiteSpace=wrap;rounded=0;fontFamily=Helvetica;fontSize=12;fontColor=default;container=0;" vertex="1" parent="LWwZCq1r_IZ6H-L7bGc5-292">
          <mxGeometry width="40" height="40" as="geometry" />
        </mxCell>
        <mxCell id="LWwZCq1r_IZ6H-L7bGc5-300" value="SAZ" style="text;html=1;align=center;verticalAlign=middle;whiteSpace=wrap;rounded=0;fontFamily=Helvetica;fontSize=12;fontColor=default;container=0;" vertex="1" parent="LWwZCq1r_IZ6H-L7bGc5-292">
          <mxGeometry y="120" width="40" height="40" as="geometry" />
        </mxCell>
        <mxCell id="LWwZCq1r_IZ6H-L7bGc5-301" value="4" style="text;html=1;align=center;verticalAlign=middle;whiteSpace=wrap;rounded=0;fontFamily=Helvetica;fontSize=12;fontColor=default;container=0;" vertex="1" parent="LWwZCq1r_IZ6H-L7bGc5-292">
          <mxGeometry x="80" width="40" height="40" as="geometry" />
        </mxCell>
        <mxCell id="LWwZCq1r_IZ6H-L7bGc5-302" value="SEZ" style="text;html=1;align=center;verticalAlign=middle;whiteSpace=wrap;rounded=0;fontFamily=Helvetica;fontSize=12;fontColor=default;container=0;" vertex="1" parent="LWwZCq1r_IZ6H-L7bGc5-292">
          <mxGeometry x="80" y="120" width="40" height="40" as="geometry" />
        </mxCell>
        <mxCell id="LWwZCq1r_IZ6H-L7bGc5-303" style="edgeStyle=orthogonalEdgeStyle;rounded=0;orthogonalLoop=1;jettySize=auto;html=1;fontFamily=Helvetica;fontSize=12;fontColor=default;" edge="1" parent="1" source="LWwZCq1r_IZ6H-L7bGc5-281" target="LWwZCq1r_IZ6H-L7bGc5-293">
          <mxGeometry relative="1" as="geometry" />
        </mxCell>
        <mxCell id="LWwZCq1r_IZ6H-L7bGc5-304" value="" style="group" vertex="1" connectable="0" parent="1">
          <mxGeometry x="840" y="320" width="120" height="160" as="geometry" />
        </mxCell>
        <mxCell id="LWwZCq1r_IZ6H-L7bGc5-305" value="" style="rounded=0;whiteSpace=wrap;html=1;align=center;verticalAlign=middle;fontFamily=Helvetica;fontSize=12;fillColor=none;strokeColor=none;" vertex="1" parent="LWwZCq1r_IZ6H-L7bGc5-304">
          <mxGeometry width="120" height="160" as="geometry" />
        </mxCell>
        <mxCell id="LWwZCq1r_IZ6H-L7bGc5-306" value="10" style="rounded=0;whiteSpace=wrap;html=1;strokeColor=default;align=center;verticalAlign=middle;fontFamily=Helvetica;fontSize=12;fontColor=default;fillColor=none;container=0;" vertex="1" parent="LWwZCq1r_IZ6H-L7bGc5-304">
          <mxGeometry y="40" width="40" height="40" as="geometry" />
        </mxCell>
        <mxCell id="LWwZCq1r_IZ6H-L7bGc5-307" value="&lt;font&gt;Server installieren&lt;/font&gt;" style="rounded=0;whiteSpace=wrap;html=1;strokeColor=default;align=center;verticalAlign=middle;fontFamily=Helvetica;fontSize=10;fontColor=default;fillColor=none;container=0;" vertex="1" parent="LWwZCq1r_IZ6H-L7bGc5-304">
          <mxGeometry x="40" y="40" width="80" height="40" as="geometry" />
        </mxCell>
        <mxCell id="LWwZCq1r_IZ6H-L7bGc5-308" value="3" style="rounded=0;whiteSpace=wrap;html=1;strokeColor=default;align=center;verticalAlign=middle;fontFamily=Helvetica;fontSize=12;fontColor=default;fillColor=none;container=0;" vertex="1" parent="LWwZCq1r_IZ6H-L7bGc5-304">
          <mxGeometry y="80" width="40" height="40" as="geometry" />
        </mxCell>
        <mxCell id="LWwZCq1r_IZ6H-L7bGc5-309" value="GP" style="rounded=0;whiteSpace=wrap;html=1;strokeColor=default;align=center;verticalAlign=middle;fontFamily=Helvetica;fontSize=12;fontColor=default;fillColor=none;container=0;" vertex="1" parent="LWwZCq1r_IZ6H-L7bGc5-304">
          <mxGeometry x="40" y="80" width="40" height="40" as="geometry" />
        </mxCell>
        <mxCell id="LWwZCq1r_IZ6H-L7bGc5-310" value="FP" style="rounded=0;whiteSpace=wrap;html=1;strokeColor=default;align=center;verticalAlign=middle;fontFamily=Helvetica;fontSize=12;fontColor=default;fillColor=none;container=0;" vertex="1" parent="LWwZCq1r_IZ6H-L7bGc5-304">
          <mxGeometry x="80" y="80" width="40" height="40" as="geometry" />
        </mxCell>
        <mxCell id="LWwZCq1r_IZ6H-L7bGc5-311" value="13" style="text;html=1;align=center;verticalAlign=middle;whiteSpace=wrap;rounded=0;fontFamily=Helvetica;fontSize=12;fontColor=default;container=0;" vertex="1" parent="LWwZCq1r_IZ6H-L7bGc5-304">
          <mxGeometry width="40" height="40" as="geometry" />
        </mxCell>
        <mxCell id="LWwZCq1r_IZ6H-L7bGc5-312" value="13" style="text;html=1;align=center;verticalAlign=middle;whiteSpace=wrap;rounded=0;fontFamily=Helvetica;fontSize=12;fontColor=default;container=0;" vertex="1" parent="LWwZCq1r_IZ6H-L7bGc5-304">
          <mxGeometry y="120" width="40" height="40" as="geometry" />
        </mxCell>
        <mxCell id="LWwZCq1r_IZ6H-L7bGc5-313" value="16" style="text;html=1;align=center;verticalAlign=middle;whiteSpace=wrap;rounded=0;fontFamily=Helvetica;fontSize=12;fontColor=default;container=0;" vertex="1" parent="LWwZCq1r_IZ6H-L7bGc5-304">
          <mxGeometry x="80" width="40" height="40" as="geometry" />
        </mxCell>
        <mxCell id="LWwZCq1r_IZ6H-L7bGc5-314" value="16" style="text;html=1;align=center;verticalAlign=middle;whiteSpace=wrap;rounded=0;fontFamily=Helvetica;fontSize=12;fontColor=default;container=0;" vertex="1" parent="LWwZCq1r_IZ6H-L7bGc5-304">
          <mxGeometry x="80" y="120" width="40" height="40" as="geometry" />
        </mxCell>
        <mxCell id="LWwZCq1r_IZ6H-L7bGc5-315" style="edgeStyle=orthogonalEdgeStyle;rounded=0;orthogonalLoop=1;jettySize=auto;html=1;fontFamily=Helvetica;fontSize=12;fontColor=default;" edge="1" parent="1" source="LWwZCq1r_IZ6H-L7bGc5-244" target="LWwZCq1r_IZ6H-L7bGc5-305">
          <mxGeometry relative="1" as="geometry" />
        </mxCell>
        <mxCell id="LWwZCq1r_IZ6H-L7bGc5-328" value="" style="group" vertex="1" connectable="0" parent="1">
          <mxGeometry x="840" y="560" width="120" height="160" as="geometry" />
        </mxCell>
        <mxCell id="LWwZCq1r_IZ6H-L7bGc5-329" value="" style="rounded=0;whiteSpace=wrap;html=1;align=center;verticalAlign=middle;fontFamily=Helvetica;fontSize=12;fillColor=none;strokeColor=none;" vertex="1" parent="LWwZCq1r_IZ6H-L7bGc5-328">
          <mxGeometry width="120" height="160" as="geometry" />
        </mxCell>
        <mxCell id="LWwZCq1r_IZ6H-L7bGc5-330" value="11" style="rounded=0;whiteSpace=wrap;html=1;strokeColor=default;align=center;verticalAlign=middle;fontFamily=Helvetica;fontSize=12;fontColor=default;fillColor=none;container=0;" vertex="1" parent="LWwZCq1r_IZ6H-L7bGc5-328">
          <mxGeometry y="40" width="40" height="40" as="geometry" />
        </mxCell>
        <mxCell id="LWwZCq1r_IZ6H-L7bGc5-331" value="&lt;font&gt;Netzwerk aufbauen&lt;/font&gt;" style="rounded=0;whiteSpace=wrap;html=1;strokeColor=default;align=center;verticalAlign=middle;fontFamily=Helvetica;fontSize=10;fontColor=default;fillColor=none;container=0;" vertex="1" parent="LWwZCq1r_IZ6H-L7bGc5-328">
          <mxGeometry x="40" y="40" width="80" height="40" as="geometry" />
        </mxCell>
        <mxCell id="LWwZCq1r_IZ6H-L7bGc5-332" value="5" style="rounded=0;whiteSpace=wrap;html=1;strokeColor=default;align=center;verticalAlign=middle;fontFamily=Helvetica;fontSize=12;fontColor=default;fillColor=none;container=0;" vertex="1" parent="LWwZCq1r_IZ6H-L7bGc5-328">
          <mxGeometry y="80" width="40" height="40" as="geometry" />
        </mxCell>
        <mxCell id="LWwZCq1r_IZ6H-L7bGc5-333" value="GP" style="rounded=0;whiteSpace=wrap;html=1;strokeColor=default;align=center;verticalAlign=middle;fontFamily=Helvetica;fontSize=12;fontColor=default;fillColor=none;container=0;" vertex="1" parent="LWwZCq1r_IZ6H-L7bGc5-328">
          <mxGeometry x="40" y="80" width="40" height="40" as="geometry" />
        </mxCell>
        <mxCell id="LWwZCq1r_IZ6H-L7bGc5-334" value="FP" style="rounded=0;whiteSpace=wrap;html=1;strokeColor=default;align=center;verticalAlign=middle;fontFamily=Helvetica;fontSize=12;fontColor=default;fillColor=none;container=0;" vertex="1" parent="LWwZCq1r_IZ6H-L7bGc5-328">
          <mxGeometry x="80" y="80" width="40" height="40" as="geometry" />
        </mxCell>
        <mxCell id="LWwZCq1r_IZ6H-L7bGc5-335" value="9" style="text;html=1;align=center;verticalAlign=middle;whiteSpace=wrap;rounded=0;fontFamily=Helvetica;fontSize=12;fontColor=default;container=0;" vertex="1" parent="LWwZCq1r_IZ6H-L7bGc5-328">
          <mxGeometry width="40" height="40" as="geometry" />
        </mxCell>
        <mxCell id="LWwZCq1r_IZ6H-L7bGc5-336" value="11" style="text;html=1;align=center;verticalAlign=middle;whiteSpace=wrap;rounded=0;fontFamily=Helvetica;fontSize=12;fontColor=default;container=0;" vertex="1" parent="LWwZCq1r_IZ6H-L7bGc5-328">
          <mxGeometry y="120" width="40" height="40" as="geometry" />
        </mxCell>
        <mxCell id="LWwZCq1r_IZ6H-L7bGc5-337" value="14" style="text;html=1;align=center;verticalAlign=middle;whiteSpace=wrap;rounded=0;fontFamily=Helvetica;fontSize=12;fontColor=default;container=0;" vertex="1" parent="LWwZCq1r_IZ6H-L7bGc5-328">
          <mxGeometry x="80" width="40" height="40" as="geometry" />
        </mxCell>
        <mxCell id="LWwZCq1r_IZ6H-L7bGc5-338" value="16" style="text;html=1;align=center;verticalAlign=middle;whiteSpace=wrap;rounded=0;fontFamily=Helvetica;fontSize=12;fontColor=default;container=0;" vertex="1" parent="LWwZCq1r_IZ6H-L7bGc5-328">
          <mxGeometry x="80" y="120" width="40" height="40" as="geometry" />
        </mxCell>
        <mxCell id="LWwZCq1r_IZ6H-L7bGc5-339" style="edgeStyle=orthogonalEdgeStyle;rounded=0;orthogonalLoop=1;jettySize=auto;html=1;fontFamily=Helvetica;fontSize=12;fontColor=default;" edge="1" parent="1" source="LWwZCq1r_IZ6H-L7bGc5-266" target="LWwZCq1r_IZ6H-L7bGc5-329">
          <mxGeometry relative="1" as="geometry" />
        </mxCell>
        <mxCell id="LWwZCq1r_IZ6H-L7bGc5-352" value="" style="group" vertex="1" connectable="0" parent="1">
          <mxGeometry x="1121" y="320" width="120" height="160" as="geometry" />
        </mxCell>
        <mxCell id="LWwZCq1r_IZ6H-L7bGc5-353" value="" style="rounded=0;whiteSpace=wrap;html=1;align=center;verticalAlign=middle;fontFamily=Helvetica;fontSize=12;fillColor=none;strokeColor=none;" vertex="1" parent="LWwZCq1r_IZ6H-L7bGc5-352">
          <mxGeometry width="120" height="160" as="geometry" />
        </mxCell>
        <mxCell id="LWwZCq1r_IZ6H-L7bGc5-354" value="12" style="rounded=0;whiteSpace=wrap;html=1;strokeColor=default;align=center;verticalAlign=middle;fontFamily=Helvetica;fontSize=12;fontColor=default;fillColor=none;container=0;" vertex="1" parent="LWwZCq1r_IZ6H-L7bGc5-352">
          <mxGeometry y="40" width="40" height="40" as="geometry" />
        </mxCell>
        <mxCell id="LWwZCq1r_IZ6H-L7bGc5-355" value="PC-Image anlegen" style="rounded=0;whiteSpace=wrap;html=1;strokeColor=default;align=center;verticalAlign=middle;fontFamily=Helvetica;fontSize=10;fontColor=default;fillColor=none;container=0;" vertex="1" parent="LWwZCq1r_IZ6H-L7bGc5-352">
          <mxGeometry x="40" y="40" width="80" height="40" as="geometry" />
        </mxCell>
        <mxCell id="LWwZCq1r_IZ6H-L7bGc5-356" value="1" style="rounded=0;whiteSpace=wrap;html=1;strokeColor=default;align=center;verticalAlign=middle;fontFamily=Helvetica;fontSize=12;fontColor=default;fillColor=none;container=0;" vertex="1" parent="LWwZCq1r_IZ6H-L7bGc5-352">
          <mxGeometry y="80" width="40" height="40" as="geometry" />
        </mxCell>
        <mxCell id="LWwZCq1r_IZ6H-L7bGc5-357" value="GP" style="rounded=0;whiteSpace=wrap;html=1;strokeColor=default;align=center;verticalAlign=middle;fontFamily=Helvetica;fontSize=12;fontColor=default;fillColor=none;container=0;" vertex="1" parent="LWwZCq1r_IZ6H-L7bGc5-352">
          <mxGeometry x="40" y="80" width="40" height="40" as="geometry" />
        </mxCell>
        <mxCell id="LWwZCq1r_IZ6H-L7bGc5-358" value="FP" style="rounded=0;whiteSpace=wrap;html=1;strokeColor=default;align=center;verticalAlign=middle;fontFamily=Helvetica;fontSize=12;fontColor=default;fillColor=none;container=0;" vertex="1" parent="LWwZCq1r_IZ6H-L7bGc5-352">
          <mxGeometry x="80" y="80" width="40" height="40" as="geometry" />
        </mxCell>
        <mxCell id="LWwZCq1r_IZ6H-L7bGc5-359" value="16" style="text;html=1;align=center;verticalAlign=middle;whiteSpace=wrap;rounded=0;fontFamily=Helvetica;fontSize=12;fontColor=default;container=0;" vertex="1" parent="LWwZCq1r_IZ6H-L7bGc5-352">
          <mxGeometry width="40" height="40" as="geometry" />
        </mxCell>
        <mxCell id="LWwZCq1r_IZ6H-L7bGc5-360" value="17" style="text;html=1;align=center;verticalAlign=middle;whiteSpace=wrap;rounded=0;fontFamily=Helvetica;fontSize=12;fontColor=default;container=0;" vertex="1" parent="LWwZCq1r_IZ6H-L7bGc5-352">
          <mxGeometry y="120" width="40" height="40" as="geometry" />
        </mxCell>
        <mxCell id="LWwZCq1r_IZ6H-L7bGc5-361" value="17" style="text;html=1;align=center;verticalAlign=middle;whiteSpace=wrap;rounded=0;fontFamily=Helvetica;fontSize=12;fontColor=default;container=0;" vertex="1" parent="LWwZCq1r_IZ6H-L7bGc5-352">
          <mxGeometry x="80" width="40" height="40" as="geometry" />
        </mxCell>
        <mxCell id="LWwZCq1r_IZ6H-L7bGc5-362" value="18" style="text;html=1;align=center;verticalAlign=middle;whiteSpace=wrap;rounded=0;fontFamily=Helvetica;fontSize=12;fontColor=default;container=0;" vertex="1" parent="LWwZCq1r_IZ6H-L7bGc5-352">
          <mxGeometry x="80" y="120" width="40" height="40" as="geometry" />
        </mxCell>
        <mxCell id="LWwZCq1r_IZ6H-L7bGc5-363" style="edgeStyle=orthogonalEdgeStyle;rounded=0;orthogonalLoop=1;jettySize=auto;html=1;fontFamily=Helvetica;fontSize=12;fontColor=default;" edge="1" parent="1" source="LWwZCq1r_IZ6H-L7bGc5-255" target="LWwZCq1r_IZ6H-L7bGc5-353">
          <mxGeometry relative="1" as="geometry">
            <Array as="points">
              <mxPoint x="1080" y="160" />
              <mxPoint x="1080" y="400" />
            </Array>
          </mxGeometry>
        </mxCell>
        <mxCell id="LWwZCq1r_IZ6H-L7bGc5-364" style="edgeStyle=orthogonalEdgeStyle;rounded=0;orthogonalLoop=1;jettySize=auto;html=1;fontFamily=Helvetica;fontSize=12;fontColor=default;" edge="1" parent="1" source="LWwZCq1r_IZ6H-L7bGc5-305" target="LWwZCq1r_IZ6H-L7bGc5-353">
          <mxGeometry relative="1" as="geometry">
            <Array as="points">
              <mxPoint x="1000" y="400" />
              <mxPoint x="1000" y="480" />
              <mxPoint x="1040" y="480" />
              <mxPoint x="1040" y="400" />
            </Array>
          </mxGeometry>
        </mxCell>
        <mxCell id="LWwZCq1r_IZ6H-L7bGc5-365" style="edgeStyle=orthogonalEdgeStyle;rounded=0;orthogonalLoop=1;jettySize=auto;html=1;fontFamily=Helvetica;fontSize=12;fontColor=default;" edge="1" parent="1" source="LWwZCq1r_IZ6H-L7bGc5-329" target="LWwZCq1r_IZ6H-L7bGc5-353">
          <mxGeometry relative="1" as="geometry">
            <Array as="points">
              <mxPoint x="1000" y="640" />
              <mxPoint x="1000" y="560" />
              <mxPoint x="1040" y="560" />
              <mxPoint x="1040" y="400" />
            </Array>
          </mxGeometry>
        </mxCell>
        <mxCell id="LWwZCq1r_IZ6H-L7bGc5-366" value="" style="group" vertex="1" connectable="0" parent="1">
          <mxGeometry x="1121" y="560" width="120" height="160" as="geometry" />
        </mxCell>
        <mxCell id="LWwZCq1r_IZ6H-L7bGc5-367" value="" style="rounded=0;whiteSpace=wrap;html=1;align=center;verticalAlign=middle;fontFamily=Helvetica;fontSize=12;fillColor=none;strokeColor=none;" vertex="1" parent="LWwZCq1r_IZ6H-L7bGc5-366">
          <mxGeometry width="120" height="160" as="geometry" />
        </mxCell>
        <mxCell id="LWwZCq1r_IZ6H-L7bGc5-368" value="13" style="rounded=0;whiteSpace=wrap;html=1;strokeColor=default;align=center;verticalAlign=middle;fontFamily=Helvetica;fontSize=12;fontColor=default;fillColor=none;container=0;" vertex="1" parent="LWwZCq1r_IZ6H-L7bGc5-366">
          <mxGeometry y="40" width="40" height="40" as="geometry" />
        </mxCell>
        <mxCell id="LWwZCq1r_IZ6H-L7bGc5-369" value="&lt;font&gt;Peripherie anschließen&lt;/font&gt;" style="rounded=0;whiteSpace=wrap;html=1;strokeColor=default;align=center;verticalAlign=middle;fontFamily=Helvetica;fontSize=10;fontColor=default;fillColor=none;container=0;" vertex="1" parent="LWwZCq1r_IZ6H-L7bGc5-366">
          <mxGeometry x="40" y="40" width="80" height="40" as="geometry" />
        </mxCell>
        <mxCell id="LWwZCq1r_IZ6H-L7bGc5-370" value="1" style="rounded=0;whiteSpace=wrap;html=1;strokeColor=default;align=center;verticalAlign=middle;fontFamily=Helvetica;fontSize=12;fontColor=default;fillColor=none;container=0;" vertex="1" parent="LWwZCq1r_IZ6H-L7bGc5-366">
          <mxGeometry y="80" width="40" height="40" as="geometry" />
        </mxCell>
        <mxCell id="LWwZCq1r_IZ6H-L7bGc5-371" value="GP" style="rounded=0;whiteSpace=wrap;html=1;strokeColor=default;align=center;verticalAlign=middle;fontFamily=Helvetica;fontSize=12;fontColor=default;fillColor=none;container=0;" vertex="1" parent="LWwZCq1r_IZ6H-L7bGc5-366">
          <mxGeometry x="40" y="80" width="40" height="40" as="geometry" />
        </mxCell>
        <mxCell id="LWwZCq1r_IZ6H-L7bGc5-372" value="FP" style="rounded=0;whiteSpace=wrap;html=1;strokeColor=default;align=center;verticalAlign=middle;fontFamily=Helvetica;fontSize=12;fontColor=default;fillColor=none;container=0;" vertex="1" parent="LWwZCq1r_IZ6H-L7bGc5-366">
          <mxGeometry x="80" y="80" width="40" height="40" as="geometry" />
        </mxCell>
        <mxCell id="LWwZCq1r_IZ6H-L7bGc5-373" value="16" style="text;html=1;align=center;verticalAlign=middle;whiteSpace=wrap;rounded=0;fontFamily=Helvetica;fontSize=12;fontColor=default;container=0;" vertex="1" parent="LWwZCq1r_IZ6H-L7bGc5-366">
          <mxGeometry width="40" height="40" as="geometry" />
        </mxCell>
        <mxCell id="LWwZCq1r_IZ6H-L7bGc5-374" value="16" style="text;html=1;align=center;verticalAlign=middle;whiteSpace=wrap;rounded=0;fontFamily=Helvetica;fontSize=12;fontColor=default;container=0;" vertex="1" parent="LWwZCq1r_IZ6H-L7bGc5-366">
          <mxGeometry y="120" width="40" height="40" as="geometry" />
        </mxCell>
        <mxCell id="LWwZCq1r_IZ6H-L7bGc5-375" value="17" style="text;html=1;align=center;verticalAlign=middle;whiteSpace=wrap;rounded=0;fontFamily=Helvetica;fontSize=12;fontColor=default;container=0;" vertex="1" parent="LWwZCq1r_IZ6H-L7bGc5-366">
          <mxGeometry x="80" width="40" height="40" as="geometry" />
        </mxCell>
        <mxCell id="LWwZCq1r_IZ6H-L7bGc5-376" value="17" style="text;html=1;align=center;verticalAlign=middle;whiteSpace=wrap;rounded=0;fontFamily=Helvetica;fontSize=12;fontColor=default;container=0;" vertex="1" parent="LWwZCq1r_IZ6H-L7bGc5-366">
          <mxGeometry x="80" y="120" width="40" height="40" as="geometry" />
        </mxCell>
        <mxCell id="LWwZCq1r_IZ6H-L7bGc5-377" style="edgeStyle=orthogonalEdgeStyle;rounded=0;orthogonalLoop=1;jettySize=auto;html=1;fontFamily=Helvetica;fontSize=12;fontColor=default;" edge="1" parent="1" source="LWwZCq1r_IZ6H-L7bGc5-305" target="LWwZCq1r_IZ6H-L7bGc5-367">
          <mxGeometry relative="1" as="geometry">
            <Array as="points">
              <mxPoint x="1000" y="400" />
              <mxPoint x="1000" y="480" />
              <mxPoint x="1040" y="480" />
              <mxPoint x="1040" y="640" />
            </Array>
          </mxGeometry>
        </mxCell>
        <mxCell id="LWwZCq1r_IZ6H-L7bGc5-378" style="edgeStyle=orthogonalEdgeStyle;rounded=0;orthogonalLoop=1;jettySize=auto;html=1;fontFamily=Helvetica;fontSize=12;fontColor=default;" edge="1" parent="1" source="LWwZCq1r_IZ6H-L7bGc5-293" target="LWwZCq1r_IZ6H-L7bGc5-367">
          <mxGeometry relative="1" as="geometry">
            <Array as="points">
              <mxPoint x="1080" y="840" />
              <mxPoint x="1080" y="640" />
            </Array>
          </mxGeometry>
        </mxCell>
        <mxCell id="LWwZCq1r_IZ6H-L7bGc5-379" value="" style="group" vertex="1" connectable="0" parent="1">
          <mxGeometry x="1320" y="560" width="120" height="160" as="geometry" />
        </mxCell>
        <mxCell id="LWwZCq1r_IZ6H-L7bGc5-380" value="" style="rounded=0;whiteSpace=wrap;html=1;align=center;verticalAlign=middle;fontFamily=Helvetica;fontSize=12;fillColor=none;strokeColor=none;" vertex="1" parent="LWwZCq1r_IZ6H-L7bGc5-379">
          <mxGeometry width="120" height="160" as="geometry" />
        </mxCell>
        <mxCell id="LWwZCq1r_IZ6H-L7bGc5-381" value="14" style="rounded=0;whiteSpace=wrap;html=1;strokeColor=default;align=center;verticalAlign=middle;fontFamily=Helvetica;fontSize=12;fontColor=default;fillColor=none;container=0;" vertex="1" parent="LWwZCq1r_IZ6H-L7bGc5-379">
          <mxGeometry y="40" width="40" height="40" as="geometry" />
        </mxCell>
        <mxCell id="LWwZCq1r_IZ6H-L7bGc5-382" value="&lt;font&gt;Netzwerkplan dokumentieren&lt;/font&gt;" style="rounded=0;whiteSpace=wrap;html=1;strokeColor=default;align=center;verticalAlign=middle;fontFamily=Helvetica;fontSize=10;fontColor=default;fillColor=none;container=0;" vertex="1" parent="LWwZCq1r_IZ6H-L7bGc5-379">
          <mxGeometry x="40" y="40" width="80" height="40" as="geometry" />
        </mxCell>
        <mxCell id="LWwZCq1r_IZ6H-L7bGc5-383" value="2" style="rounded=0;whiteSpace=wrap;html=1;strokeColor=default;align=center;verticalAlign=middle;fontFamily=Helvetica;fontSize=12;fontColor=default;fillColor=none;container=0;" vertex="1" parent="LWwZCq1r_IZ6H-L7bGc5-379">
          <mxGeometry y="80" width="40" height="40" as="geometry" />
        </mxCell>
        <mxCell id="LWwZCq1r_IZ6H-L7bGc5-384" value="GP" style="rounded=0;whiteSpace=wrap;html=1;strokeColor=default;align=center;verticalAlign=middle;fontFamily=Helvetica;fontSize=12;fontColor=default;fillColor=none;container=0;" vertex="1" parent="LWwZCq1r_IZ6H-L7bGc5-379">
          <mxGeometry x="40" y="80" width="40" height="40" as="geometry" />
        </mxCell>
        <mxCell id="LWwZCq1r_IZ6H-L7bGc5-385" value="FP" style="rounded=0;whiteSpace=wrap;html=1;strokeColor=default;align=center;verticalAlign=middle;fontFamily=Helvetica;fontSize=12;fontColor=default;fillColor=none;container=0;" vertex="1" parent="LWwZCq1r_IZ6H-L7bGc5-379">
          <mxGeometry x="80" y="80" width="40" height="40" as="geometry" />
        </mxCell>
        <mxCell id="LWwZCq1r_IZ6H-L7bGc5-386" value="17" style="text;html=1;align=center;verticalAlign=middle;whiteSpace=wrap;rounded=0;fontFamily=Helvetica;fontSize=12;fontColor=default;container=0;" vertex="1" parent="LWwZCq1r_IZ6H-L7bGc5-379">
          <mxGeometry width="40" height="40" as="geometry" />
        </mxCell>
        <mxCell id="LWwZCq1r_IZ6H-L7bGc5-387" value="17" style="text;html=1;align=center;verticalAlign=middle;whiteSpace=wrap;rounded=0;fontFamily=Helvetica;fontSize=12;fontColor=default;container=0;" vertex="1" parent="LWwZCq1r_IZ6H-L7bGc5-379">
          <mxGeometry y="120" width="40" height="40" as="geometry" />
        </mxCell>
        <mxCell id="LWwZCq1r_IZ6H-L7bGc5-388" value="19" style="text;html=1;align=center;verticalAlign=middle;whiteSpace=wrap;rounded=0;fontFamily=Helvetica;fontSize=12;fontColor=default;container=0;" vertex="1" parent="LWwZCq1r_IZ6H-L7bGc5-379">
          <mxGeometry x="80" width="40" height="40" as="geometry" />
        </mxCell>
        <mxCell id="LWwZCq1r_IZ6H-L7bGc5-389" value="19" style="text;html=1;align=center;verticalAlign=middle;whiteSpace=wrap;rounded=0;fontFamily=Helvetica;fontSize=12;fontColor=default;container=0;" vertex="1" parent="LWwZCq1r_IZ6H-L7bGc5-379">
          <mxGeometry x="80" y="120" width="40" height="40" as="geometry" />
        </mxCell>
        <mxCell id="LWwZCq1r_IZ6H-L7bGc5-390" style="edgeStyle=orthogonalEdgeStyle;rounded=0;orthogonalLoop=1;jettySize=auto;html=1;fontFamily=Helvetica;fontSize=12;fontColor=default;" edge="1" parent="1" source="LWwZCq1r_IZ6H-L7bGc5-367" target="LWwZCq1r_IZ6H-L7bGc5-380">
          <mxGeometry relative="1" as="geometry" />
        </mxCell>
        <mxCell id="LWwZCq1r_IZ6H-L7bGc5-391" value="" style="group" vertex="1" connectable="0" parent="1">
          <mxGeometry x="1320" y="320" width="120" height="160" as="geometry" />
        </mxCell>
        <mxCell id="LWwZCq1r_IZ6H-L7bGc5-392" value="" style="rounded=0;whiteSpace=wrap;html=1;align=center;verticalAlign=middle;fontFamily=Helvetica;fontSize=12;fillColor=none;strokeColor=none;" vertex="1" parent="LWwZCq1r_IZ6H-L7bGc5-391">
          <mxGeometry width="120" height="160" as="geometry" />
        </mxCell>
        <mxCell id="LWwZCq1r_IZ6H-L7bGc5-393" value="16" style="rounded=0;whiteSpace=wrap;html=1;strokeColor=default;align=center;verticalAlign=middle;fontFamily=Helvetica;fontSize=12;fontColor=default;fillColor=none;container=0;" vertex="1" parent="LWwZCq1r_IZ6H-L7bGc5-391">
          <mxGeometry y="40" width="40" height="40" as="geometry" />
        </mxCell>
        <mxCell id="LWwZCq1r_IZ6H-L7bGc5-394" value="&lt;font&gt;PC-Remote installieren&lt;/font&gt;" style="rounded=0;whiteSpace=wrap;html=1;strokeColor=default;align=center;verticalAlign=middle;fontFamily=Helvetica;fontSize=10;fontColor=default;fillColor=none;container=0;" vertex="1" parent="LWwZCq1r_IZ6H-L7bGc5-391">
          <mxGeometry x="40" y="40" width="80" height="40" as="geometry" />
        </mxCell>
        <mxCell id="LWwZCq1r_IZ6H-L7bGc5-395" value="1" style="rounded=0;whiteSpace=wrap;html=1;strokeColor=default;align=center;verticalAlign=middle;fontFamily=Helvetica;fontSize=12;fontColor=default;fillColor=none;container=0;" vertex="1" parent="LWwZCq1r_IZ6H-L7bGc5-391">
          <mxGeometry y="80" width="40" height="40" as="geometry" />
        </mxCell>
        <mxCell id="LWwZCq1r_IZ6H-L7bGc5-396" value="GP" style="rounded=0;whiteSpace=wrap;html=1;strokeColor=default;align=center;verticalAlign=middle;fontFamily=Helvetica;fontSize=12;fontColor=default;fillColor=none;container=0;" vertex="1" parent="LWwZCq1r_IZ6H-L7bGc5-391">
          <mxGeometry x="40" y="80" width="40" height="40" as="geometry" />
        </mxCell>
        <mxCell id="LWwZCq1r_IZ6H-L7bGc5-397" value="FP" style="rounded=0;whiteSpace=wrap;html=1;strokeColor=default;align=center;verticalAlign=middle;fontFamily=Helvetica;fontSize=12;fontColor=default;fillColor=none;container=0;" vertex="1" parent="LWwZCq1r_IZ6H-L7bGc5-391">
          <mxGeometry x="80" y="80" width="40" height="40" as="geometry" />
        </mxCell>
        <mxCell id="LWwZCq1r_IZ6H-L7bGc5-398" value="17" style="text;html=1;align=center;verticalAlign=middle;whiteSpace=wrap;rounded=0;fontFamily=Helvetica;fontSize=12;fontColor=default;container=0;" vertex="1" parent="LWwZCq1r_IZ6H-L7bGc5-391">
          <mxGeometry width="40" height="40" as="geometry" />
        </mxCell>
        <mxCell id="LWwZCq1r_IZ6H-L7bGc5-399" value="18" style="text;html=1;align=center;verticalAlign=middle;whiteSpace=wrap;rounded=0;fontFamily=Helvetica;fontSize=12;fontColor=default;container=0;" vertex="1" parent="LWwZCq1r_IZ6H-L7bGc5-391">
          <mxGeometry y="120" width="40" height="40" as="geometry" />
        </mxCell>
        <mxCell id="LWwZCq1r_IZ6H-L7bGc5-400" value="18" style="text;html=1;align=center;verticalAlign=middle;whiteSpace=wrap;rounded=0;fontFamily=Helvetica;fontSize=12;fontColor=default;container=0;" vertex="1" parent="LWwZCq1r_IZ6H-L7bGc5-391">
          <mxGeometry x="80" width="40" height="40" as="geometry" />
        </mxCell>
        <mxCell id="LWwZCq1r_IZ6H-L7bGc5-401" value="19" style="text;html=1;align=center;verticalAlign=middle;whiteSpace=wrap;rounded=0;fontFamily=Helvetica;fontSize=12;fontColor=default;container=0;" vertex="1" parent="LWwZCq1r_IZ6H-L7bGc5-391">
          <mxGeometry x="80" y="120" width="40" height="40" as="geometry" />
        </mxCell>
        <mxCell id="LWwZCq1r_IZ6H-L7bGc5-402" style="edgeStyle=orthogonalEdgeStyle;rounded=0;orthogonalLoop=1;jettySize=auto;html=1;fontFamily=Helvetica;fontSize=12;fontColor=default;" edge="1" parent="1" source="LWwZCq1r_IZ6H-L7bGc5-353" target="LWwZCq1r_IZ6H-L7bGc5-392">
          <mxGeometry relative="1" as="geometry" />
        </mxCell>
        <mxCell id="LWwZCq1r_IZ6H-L7bGc5-403" value="" style="group" vertex="1" connectable="0" parent="1">
          <mxGeometry x="1320" y="120" width="120" height="160" as="geometry" />
        </mxCell>
        <mxCell id="LWwZCq1r_IZ6H-L7bGc5-404" value="" style="rounded=0;whiteSpace=wrap;html=1;align=center;verticalAlign=middle;fontFamily=Helvetica;fontSize=12;fillColor=none;strokeColor=none;" vertex="1" parent="LWwZCq1r_IZ6H-L7bGc5-403">
          <mxGeometry width="120" height="160" as="geometry" />
        </mxCell>
        <mxCell id="LWwZCq1r_IZ6H-L7bGc5-405" value="15" style="rounded=0;whiteSpace=wrap;html=1;strokeColor=default;align=center;verticalAlign=middle;fontFamily=Helvetica;fontSize=12;fontColor=default;fillColor=none;container=0;" vertex="1" parent="LWwZCq1r_IZ6H-L7bGc5-403">
          <mxGeometry y="40" width="40" height="40" as="geometry" />
        </mxCell>
        <mxCell id="LWwZCq1r_IZ6H-L7bGc5-406" value="&lt;font&gt;Server-Image anlegen&lt;/font&gt;" style="rounded=0;whiteSpace=wrap;html=1;strokeColor=default;align=center;verticalAlign=middle;fontFamily=Helvetica;fontSize=10;fontColor=default;fillColor=none;container=0;" vertex="1" parent="LWwZCq1r_IZ6H-L7bGc5-403">
          <mxGeometry x="40" y="40" width="80" height="40" as="geometry" />
        </mxCell>
        <mxCell id="LWwZCq1r_IZ6H-L7bGc5-407" value="1" style="rounded=0;whiteSpace=wrap;html=1;strokeColor=default;align=center;verticalAlign=middle;fontFamily=Helvetica;fontSize=12;fontColor=default;fillColor=none;container=0;" vertex="1" parent="LWwZCq1r_IZ6H-L7bGc5-403">
          <mxGeometry y="80" width="40" height="40" as="geometry" />
        </mxCell>
        <mxCell id="LWwZCq1r_IZ6H-L7bGc5-408" value="GP" style="rounded=0;whiteSpace=wrap;html=1;strokeColor=default;align=center;verticalAlign=middle;fontFamily=Helvetica;fontSize=12;fontColor=default;fillColor=none;container=0;" vertex="1" parent="LWwZCq1r_IZ6H-L7bGc5-403">
          <mxGeometry x="40" y="80" width="40" height="40" as="geometry" />
        </mxCell>
        <mxCell id="LWwZCq1r_IZ6H-L7bGc5-409" value="FP" style="rounded=0;whiteSpace=wrap;html=1;strokeColor=default;align=center;verticalAlign=middle;fontFamily=Helvetica;fontSize=12;fontColor=default;fillColor=none;container=0;" vertex="1" parent="LWwZCq1r_IZ6H-L7bGc5-403">
          <mxGeometry x="80" y="80" width="40" height="40" as="geometry" />
        </mxCell>
        <mxCell id="LWwZCq1r_IZ6H-L7bGc5-410" value="16" style="text;html=1;align=center;verticalAlign=middle;whiteSpace=wrap;rounded=0;fontFamily=Helvetica;fontSize=12;fontColor=default;container=0;" vertex="1" parent="LWwZCq1r_IZ6H-L7bGc5-403">
          <mxGeometry width="40" height="40" as="geometry" />
        </mxCell>
        <mxCell id="LWwZCq1r_IZ6H-L7bGc5-411" value="18" style="text;html=1;align=center;verticalAlign=middle;whiteSpace=wrap;rounded=0;fontFamily=Helvetica;fontSize=12;fontColor=default;container=0;" vertex="1" parent="LWwZCq1r_IZ6H-L7bGc5-403">
          <mxGeometry y="120" width="40" height="40" as="geometry" />
        </mxCell>
        <mxCell id="LWwZCq1r_IZ6H-L7bGc5-412" value="17" style="text;html=1;align=center;verticalAlign=middle;whiteSpace=wrap;rounded=0;fontFamily=Helvetica;fontSize=12;fontColor=default;container=0;" vertex="1" parent="LWwZCq1r_IZ6H-L7bGc5-403">
          <mxGeometry x="80" width="40" height="40" as="geometry" />
        </mxCell>
        <mxCell id="LWwZCq1r_IZ6H-L7bGc5-413" value="19" style="text;html=1;align=center;verticalAlign=middle;whiteSpace=wrap;rounded=0;fontFamily=Helvetica;fontSize=12;fontColor=default;container=0;" vertex="1" parent="LWwZCq1r_IZ6H-L7bGc5-403">
          <mxGeometry x="80" y="120" width="40" height="40" as="geometry" />
        </mxCell>
        <mxCell id="LWwZCq1r_IZ6H-L7bGc5-414" style="edgeStyle=orthogonalEdgeStyle;rounded=0;orthogonalLoop=1;jettySize=auto;html=1;fontFamily=Helvetica;fontSize=12;fontColor=default;" edge="1" parent="1" source="LWwZCq1r_IZ6H-L7bGc5-305" target="LWwZCq1r_IZ6H-L7bGc5-404">
          <mxGeometry relative="1" as="geometry">
            <Array as="points">
              <mxPoint x="1000" y="400" />
              <mxPoint x="1000" y="200" />
              <mxPoint x="1070" y="200" />
              <mxPoint x="1070" y="190" />
              <mxPoint x="1090" y="190" />
              <mxPoint x="1090" y="200" />
            </Array>
          </mxGeometry>
        </mxCell>
        <mxCell id="LWwZCq1r_IZ6H-L7bGc5-415" value="" style="group" vertex="1" connectable="0" parent="1">
          <mxGeometry x="1520" y="320" width="120" height="160" as="geometry" />
        </mxCell>
        <mxCell id="LWwZCq1r_IZ6H-L7bGc5-416" value="" style="rounded=0;whiteSpace=wrap;html=1;align=center;verticalAlign=middle;fontFamily=Helvetica;fontSize=12;fillColor=none;strokeColor=none;" vertex="1" parent="LWwZCq1r_IZ6H-L7bGc5-415">
          <mxGeometry width="120" height="160" as="geometry" />
        </mxCell>
        <mxCell id="LWwZCq1r_IZ6H-L7bGc5-417" value="17" style="rounded=0;whiteSpace=wrap;html=1;strokeColor=default;align=center;verticalAlign=middle;fontFamily=Helvetica;fontSize=12;fontColor=default;fillColor=none;container=0;" vertex="1" parent="LWwZCq1r_IZ6H-L7bGc5-415">
          <mxGeometry y="40" width="40" height="40" as="geometry" />
        </mxCell>
        <mxCell id="LWwZCq1r_IZ6H-L7bGc5-418" value="&lt;font&gt;Gesamt-dokumentation erstellen&lt;/font&gt;" style="rounded=0;whiteSpace=wrap;html=1;strokeColor=default;align=center;verticalAlign=middle;fontFamily=Helvetica;fontSize=10;fontColor=default;fillColor=none;container=0;" vertex="1" parent="LWwZCq1r_IZ6H-L7bGc5-415">
          <mxGeometry x="40" y="40" width="80" height="40" as="geometry" />
        </mxCell>
        <mxCell id="LWwZCq1r_IZ6H-L7bGc5-419" value="3" style="rounded=0;whiteSpace=wrap;html=1;strokeColor=default;align=center;verticalAlign=middle;fontFamily=Helvetica;fontSize=12;fontColor=default;fillColor=none;container=0;" vertex="1" parent="LWwZCq1r_IZ6H-L7bGc5-415">
          <mxGeometry y="80" width="40" height="40" as="geometry" />
        </mxCell>
        <mxCell id="LWwZCq1r_IZ6H-L7bGc5-420" value="GP" style="rounded=0;whiteSpace=wrap;html=1;strokeColor=default;align=center;verticalAlign=middle;fontFamily=Helvetica;fontSize=12;fontColor=default;fillColor=none;container=0;" vertex="1" parent="LWwZCq1r_IZ6H-L7bGc5-415">
          <mxGeometry x="40" y="80" width="40" height="40" as="geometry" />
        </mxCell>
        <mxCell id="LWwZCq1r_IZ6H-L7bGc5-421" value="FP" style="rounded=0;whiteSpace=wrap;html=1;strokeColor=default;align=center;verticalAlign=middle;fontFamily=Helvetica;fontSize=12;fontColor=default;fillColor=none;container=0;" vertex="1" parent="LWwZCq1r_IZ6H-L7bGc5-415">
          <mxGeometry x="80" y="80" width="40" height="40" as="geometry" />
        </mxCell>
        <mxCell id="LWwZCq1r_IZ6H-L7bGc5-422" value="19" style="text;html=1;align=center;verticalAlign=middle;whiteSpace=wrap;rounded=0;fontFamily=Helvetica;fontSize=12;fontColor=default;container=0;" vertex="1" parent="LWwZCq1r_IZ6H-L7bGc5-415">
          <mxGeometry width="40" height="40" as="geometry" />
        </mxCell>
        <mxCell id="LWwZCq1r_IZ6H-L7bGc5-423" value="19" style="text;html=1;align=center;verticalAlign=middle;whiteSpace=wrap;rounded=0;fontFamily=Helvetica;fontSize=12;fontColor=default;container=0;" vertex="1" parent="LWwZCq1r_IZ6H-L7bGc5-415">
          <mxGeometry y="120" width="40" height="40" as="geometry" />
        </mxCell>
        <mxCell id="LWwZCq1r_IZ6H-L7bGc5-424" value="22" style="text;html=1;align=center;verticalAlign=middle;whiteSpace=wrap;rounded=0;fontFamily=Helvetica;fontSize=12;fontColor=default;container=0;" vertex="1" parent="LWwZCq1r_IZ6H-L7bGc5-415">
          <mxGeometry x="80" width="40" height="40" as="geometry" />
        </mxCell>
        <mxCell id="LWwZCq1r_IZ6H-L7bGc5-425" value="22" style="text;html=1;align=center;verticalAlign=middle;whiteSpace=wrap;rounded=0;fontFamily=Helvetica;fontSize=12;fontColor=default;container=0;" vertex="1" parent="LWwZCq1r_IZ6H-L7bGc5-415">
          <mxGeometry x="80" y="120" width="40" height="40" as="geometry" />
        </mxCell>
        <mxCell id="LWwZCq1r_IZ6H-L7bGc5-426" style="edgeStyle=orthogonalEdgeStyle;rounded=0;orthogonalLoop=1;jettySize=auto;html=1;fontFamily=Helvetica;fontSize=12;fontColor=default;" edge="1" parent="1" source="LWwZCq1r_IZ6H-L7bGc5-392" target="LWwZCq1r_IZ6H-L7bGc5-416">
          <mxGeometry relative="1" as="geometry" />
        </mxCell>
        <mxCell id="LWwZCq1r_IZ6H-L7bGc5-427" style="edgeStyle=orthogonalEdgeStyle;rounded=0;orthogonalLoop=1;jettySize=auto;html=1;fontFamily=Helvetica;fontSize=12;fontColor=default;" edge="1" parent="1" source="LWwZCq1r_IZ6H-L7bGc5-404" target="LWwZCq1r_IZ6H-L7bGc5-416">
          <mxGeometry relative="1" as="geometry">
            <Array as="points">
              <mxPoint x="1480" y="200" />
              <mxPoint x="1480" y="400" />
            </Array>
          </mxGeometry>
        </mxCell>
        <mxCell id="LWwZCq1r_IZ6H-L7bGc5-428" style="edgeStyle=orthogonalEdgeStyle;rounded=0;orthogonalLoop=1;jettySize=auto;html=1;fontFamily=Helvetica;fontSize=12;fontColor=default;" edge="1" parent="1" source="LWwZCq1r_IZ6H-L7bGc5-380" target="LWwZCq1r_IZ6H-L7bGc5-416">
          <mxGeometry relative="1" as="geometry">
            <Array as="points">
              <mxPoint x="1480" y="640" />
              <mxPoint x="1480" y="400" />
            </Array>
          </mxGeometry>
        </mxCell>
      </root>
    </mxGraphModel>
  </diagram>
</mxfile>
